<?xml version="1.0" standalone="no"?>
<!DOCTYPE svg PUBLIC "-//W3C//DTD SVG 20010904//EN"
 "http://www.w3.org/TR/2001/REC-SVG-20010904/DTD/svg10.dtd">
<svg version="1.0" xmlns="http://www.w3.org/2000/svg"
 width="537.000000pt" height="485.000000pt" viewBox="0 0 537.000000 485.000000"
 preserveAspectRatio="xMidYMid meet">

<g transform="translate(0.000000,485.000000) scale(0.100000,-0.100000)"
fill="#000000" stroke="none">
<path d="M5350 4830 c6 -11 13 -20 15 -20 3 0 5 9 5 20 0 11 -7 20 -15 20 -13
0 -14 -4 -5 -20z"/>
<path d="M5090 4407 c-41 -11 -69 -29 -180 -122 -47 -39 -141 -116 -210 -170
-69 -55 -136 -109 -150 -122 -28 -25 -124 -104 -256 -210 -203 -164 -550 -446
-569 -461 -11 -10 -42 -35 -70 -57 -27 -22 -55 -44 -61 -50 -22 -20 -111 -93
-308 -253 -358 -291 -489 -397 -518 -420 -16 -13 -35 -22 -42 -19 -7 3 -51 33
-97 68 -46 35 -115 86 -154 114 -38 29 -170 126 -293 216 -123 90 -242 177
-265 193 -23 16 -109 80 -192 141 -82 61 -211 155 -285 210 -74 54 -205 151
-290 214 -213 157 -343 252 -566 415 -60 44 -111 83 -114 86 -4 5 -74 53 -107
73 -9 6 -11 3 -7 -7 3 -9 10 -16 14 -16 7 0 127 -94 140 -111 3 -3 32 -28 66
-55 100 -81 153 -124 279 -229 66 -55 127 -105 135 -112 15 -12 139 -114 695
-571 165 -135 305 -251 311 -256 6 -6 141 -118 302 -249 160 -132 289 -244
286 -250 -3 -7 -64 -59 -137 -117 -72 -58 -219 -177 -327 -264 -107 -88 -251
-205 -319 -260 -69 -56 -170 -138 -225 -184 -115 -94 -108 -89 -200 -162 -37
-30 -98 -80 -135 -110 -68 -57 -116 -96 -350 -284 -75 -60 -163 -132 -197
-160 -34 -28 -81 -67 -105 -86 -23 -19 -73 -60 -109 -90 -37 -30 -81 -66 -98
-79 -18 -13 -32 -29 -32 -35 0 -7 3 -7 8 -1 4 6 32 27 62 47 53 36 97 68 336
242 60 44 162 118 228 165 65 47 150 110 190 139 39 29 94 68 121 87 28 19 84
59 125 90 119 87 221 161 382 277 51 38 132 96 179 130 48 35 122 89 165 120
44 31 142 102 219 158 77 55 148 107 157 114 9 8 53 40 97 71 44 31 83 61 86
66 13 20 41 5 143 -78 113 -91 269 -220 288 -238 6 -5 27 -22 46 -37 19 -15
79 -65 135 -110 55 -46 130 -108 168 -138 37 -30 75 -62 85 -70 10 -8 37 -31
61 -51 24 -20 86 -72 138 -115 93 -78 179 -148 295 -242 32 -26 115 -94 185
-152 459 -381 738 -610 779 -639 50 -35 140 -33 188 4 52 40 74 81 74 140 0
70 -29 112 -130 186 -47 34 -119 87 -160 117 -71 52 -253 188 -275 205 -5 4
-57 42 -115 84 -58 42 -148 108 -200 146 -117 87 -201 148 -350 257 -208 152
-265 194 -270 200 -3 3 -36 28 -75 55 -38 27 -112 81 -164 120 -52 38 -112 83
-135 99 -45 32 -165 120 -181 133 -5 5 -68 50 -138 101 -70 50 -144 105 -165
122 -43 36 -45 32 75 118 139 98 284 202 398 287 61 44 120 87 131 95 53 37
223 160 379 274 94 68 188 138 210 154 22 16 123 89 225 163 188 135 359 259
434 314 23 17 138 101 257 188 119 86 223 167 231 179 31 51 40 96 27 136 -32
98 -120 153 -209 129z"/>
</g>
</svg>
